<svg width="15" height="16" viewBox="0 0 15 16" fill="none" xmlns="http://www.w3.org/2000/svg">
<path d="M0.24477 14.9969C0.575843 15.3186 1.12448 15.3186 1.44609 14.9969L7.49999 8.94203L13.5539 14.9969C13.8755 15.3186 14.4336 15.328 14.7552 14.9969C15.0768 14.6657 15.0768 14.1265 14.7552 13.8049L8.70131 7.74052L14.7552 1.68566C15.0768 1.36399 15.0863 0.815268 14.7552 0.493603C14.4242 0.162478 13.8755 0.162478 13.5539 0.493603L7.49999 6.54847L1.44609 0.493603C1.12448 0.162478 0.566383 0.153017 0.24477 0.493603C-0.0768433 0.824729 -0.0768433 1.36399 0.24477 1.68566L6.29867 7.74052L0.24477 13.8049C-0.0768433 14.1265 -0.0863026 14.6752 0.24477 14.9969Z" fill="#000A14"/>
</svg>
