<svg width="20" height="20" viewBox="0 0 20 20" fill="none" xmlns="http://www.w3.org/2000/svg">
<path d="M0 15.6822C0 16.2603 0.47238 16.6382 1.25427 16.6382H6.34101C6.40707 18.483 7.90145 20 9.99794 20C12.0985 20 13.5929 18.4897 13.6589 16.6382H18.7457C19.5201 16.6382 20 16.2603 20 15.6822C20 14.6918 18.9494 13.8273 18.0542 12.9542C17.1775 12.0889 17.0871 10.322 16.9044 8.77208C16.729 5.40351 15.6417 3.10172 12.9069 2.288C12.6012 0.968059 11.4967 0 9.99794 0C8.50325 0 7.39142 0.968059 7.0931 2.288C4.35823 3.10172 3.27093 5.40351 3.09558 8.77208C2.9128 10.322 2.82255 12.0889 1.94578 12.9542C1.04319 13.8273 0 14.6918 0 15.6822ZM1.58679 15.4875V15.3756C1.71707 14.9833 2.43924 14.2836 3.05201 13.6761C4.03001 12.7116 4.20569 10.9567 4.40922 8.89394C4.61201 5.23942 5.84713 3.82242 7.71673 3.35675C8.02904 3.28244 8.20633 3.16128 8.23376 2.88094C8.30939 1.87253 8.96153 1.12653 9.99794 1.12653C11.0384 1.12653 11.6832 1.87253 11.7663 2.88094C11.7937 3.16128 11.9636 3.28244 12.2759 3.35675C14.1529 3.82242 15.388 5.23942 15.5907 8.89394C15.7943 10.9567 15.97 12.7116 16.9405 13.6761C17.5607 14.2836 18.2754 14.9833 18.4058 15.3756V15.4875H1.58679ZM7.63573 16.6382H12.3642C12.2782 18.0349 11.323 18.9203 9.99794 18.9203C8.67698 18.9203 7.71436 18.0349 7.63573 16.6382Z" fill="#FBFBFA"/>
</svg>
