<svg width="21" height="18" viewBox="0 0 21 18" fill="none" xmlns="http://www.w3.org/2000/svg">
<path d="M0.5 0.533877C0.5 0.827491 0.724877 1.07702 0.996957 1.07702H4.13663L5.60301 11.6375C5.76551 12.812 6.35284 13.5417 7.49451 13.5417H17.8752C18.1412 13.5417 18.3688 13.3141 18.3688 13.0078C18.3688 12.6985 18.1412 12.471 17.8752 12.471H7.63822C7.08643 12.471 6.75214 12.0977 6.65957 11.4723L6.48384 10.2644H17.8083C18.9969 10.2644 19.5625 9.52553 19.7359 8.31008L20.465 3.26968C20.4798 3.16649 20.5 3.0183 20.5 2.94642C20.5 2.55064 20.2386 2.29093 19.8077 2.29093H5.36893L5.15538 0.830365C5.08667 0.283703 4.89268 0 4.19085 0H0.996957C0.724877 0 0.5 0.24952 0.5 0.533877ZM7.02676 16.5541C7.02676 17.3654 7.63401 18 8.3998 18C9.16226 18 9.76951 17.3654 9.76951 16.5541C9.76951 15.7521 9.16226 15.111 8.3998 15.111C7.63401 15.111 7.02676 15.7521 7.02676 16.5541ZM15.0781 16.5541C15.0781 17.3654 15.6969 18 16.4566 18C17.225 18 17.8323 17.3654 17.8323 16.5541C17.8323 15.7521 17.225 15.111 16.4566 15.111C15.6969 15.111 15.0781 15.7521 15.0781 16.5541Z" fill="#FBFBFA"/>
</svg>

