<svg width="35" height="34" viewBox="0 0 35 34" fill="none" xmlns="http://www.w3.org/2000/svg">
<path d="M17.4975 33.6667C26.7024 33.6667 34.1667 26.2012 34.1667 17C34.1667 7.79365 26.7024 0.333336 17.4975 0.333336C8.2977 0.333336 0.833374 7.79365 0.833374 17C0.833374 26.2012 8.2977 33.6667 17.4975 33.6667ZM17.4975 31.5114C9.4772 31.5114 2.98835 25.0215 2.98835 17C2.98835 8.97333 9.4772 2.4835 17.4975 2.4835C25.5228 2.4835 32.0117 8.97333 32.0117 17C32.0117 25.0215 25.5228 31.5114 17.4975 31.5114Z" fill="#32D74B"/>
<path d="M14.9064 25.3333C15.32 25.3333 15.6669 25.1288 15.9233 24.7415L23.8752 12.1C24.0097 11.8495 24.1667 11.5657 24.1667 11.2922C24.1667 10.7234 23.6589 10.3333 23.1334 10.3333C22.8155 10.3333 22.4973 10.5482 22.2521 10.9073L14.8561 22.8211L11.0762 18.0885C10.7796 17.6897 10.5005 17.5823 10.1435 17.5823C9.60678 17.5823 9.16671 18.0257 9.16671 18.5933C9.16671 18.8824 9.28365 19.1548 9.46725 19.404L13.8443 24.7415C14.1573 25.157 14.4827 25.3333 14.9064 25.3333Z" fill="#32D74B"/>
</svg>
