<svg width="17" height="9" viewBox="0 0 17 9" fill="none" xmlns="http://www.w3.org/2000/svg">
<path d="M0.264249 7.56441C0.0978698 7.71165 0 7.92331 0 8.16258C0 8.6411 0.381692 9 0.890616 9C1.14508 9 1.37996 8.91718 1.52677 8.76074L9.0236 1.56442H7.97639L15.4733 8.76074C15.6298 8.91718 15.8647 9 16.1094 9C16.6183 9 17 8.6411 17 8.16258C17 7.92331 16.9021 7.71165 16.7357 7.56441L9.16061 0.276074C8.99424 0.101227 8.74956 0 8.50489 0C8.25043 0 8.01554 0.101227 7.83938 0.276074L0.264249 7.56441Z" fill="white" fill-opacity="0.85"/>
</svg>
