<svg width="10" height="17" viewBox="0 0 10 17" fill="none" xmlns="http://www.w3.org/2000/svg">
<path d="M10 8.50001C10 8.25519 9.89771 8.02996 9.70338 7.8537L1.60532 0.254608C1.42126 0.0881338 1.19631 0 0.930464 0C0.409001 0 0 0.381913 0 0.891131C0 1.13594 0.102253 1.36118 0.265851 1.52765L7.70957 8.50001L0.265851 15.4724C0.102253 15.6388 0 15.8542 0 16.1089C0 16.6181 0.409001 17 0.930464 17C1.19631 17 1.42126 16.9119 1.60532 16.7357L9.70338 9.14632C9.89771 8.96027 10 8.74482 10 8.50001Z" fill="white" fill-opacity="0.85"/>
</svg>
