<svg width="16" height="10" viewBox="0 0 16 10" fill="none" xmlns="http://www.w3.org/2000/svg">
<path d="M8.0046 9.84961C8.23488 9.84961 8.46517 9.75754 8.62175 9.58274L15.7513 2.28519C15.9078 2.12875 16 1.9263 16 1.69624C16 1.2177 15.6407 0.849609 15.1617 0.849609C14.9315 0.849609 14.7197 0.941635 14.5631 1.08888L7.50719 8.29439H8.4928L1.43696 1.08888C1.28958 0.941635 1.07772 0.849609 0.838226 0.849609C0.35924 0.849609 0 1.2177 0 1.69624C0 1.9263 0.0921127 2.12875 0.248705 2.29439L7.37824 9.58274C7.55325 9.75754 7.76511 9.84961 8.0046 9.84961Z" fill="white" fill-opacity="0.85"/>
</svg>
