<svg width="14" height="7" viewBox="0 0 14 7" fill="none" xmlns="http://www.w3.org/2000/svg">
<path d="M7.0037 7c-.1896 0-.3592-.0692-.5089-.2076L.7021 1.1237C.6372 1.0617.5873.9925.5524.9162.5175.835.5.7491.5.6585.5.5344.5299.4223.5898.3221.6497.2219.7295.1431.8293.0859.9341.0286 1.0513 0 1.1811 0c.1896 0 .3518.062.4865.1861L7.4004 5.7904H6.5996L12.3325.1861C12.4722.062 12.6343 0 12.8189 0c.1298 0 .2445.0286.3443.0859.1048.0573.1871.136.247.2362.0599.1002.0898.2123.0898.3364 0 .1766-.0674.3292-.2021.4581L7.5052 6.7924c-.0649.0668-.1422.1193-.232.1575C7.1883 6.9833 7.0985 7 7.0037 7Z" fill="#FBFBFA"/>
</svg>
