<svg width="10" height="17" viewBox="0 0 10 17" fill="none" xmlns="http://www.w3.org/2000/svg">
<path d="M0 8.50001C0 8.74482 0.0920245 8.96027 0.286299 9.14632L8.39469 16.7357C8.5685 16.9119 8.79346 17 9.0593 17C9.59101 17 10 16.6181 10 16.1089C10 15.8542 9.88753 15.6388 9.72393 15.4724L2.28016 8.50001L9.72393 1.52765C9.88753 1.36118 10 1.13594 10 0.891131C10 0.381913 9.59101 0 9.0593 0C8.79346 0 8.5685 0.0881338 8.39469 0.254608L0.286299 7.8537C0.0920245 8.02996 0 8.25519 0 8.50001Z" fill="white" fill-opacity="0.85"/>
</svg>
