<svg width="18" height="17" viewBox="0 0 18 17" fill="none" xmlns="http://www.w3.org/2000/svg">
<path d="M12.9521 1.0957C15.5095 1.09593 17.5 3.03834 17.5 5.85938C17.5 7.56459 16.7572 9.29709 15.3574 11.0088C13.9582 12.7197 11.9239 14.381 9.4043 15.9307C9.32286 15.9764 9.23233 16.0216 9.14844 16.0537C9.10541 16.0702 9.06902 16.0819 9.04004 16.0889C9.00956 16.0961 8.99703 16.0957 9 16.0957C9.00301 16.0957 8.99096 16.096 8.96094 16.0889C8.93225 16.082 8.89562 16.07 8.85352 16.0537C8.81106 16.0373 8.76713 16.0182 8.72461 15.9971L8.60352 15.9307C6.07972 14.3811 4.0437 12.7195 2.64355 11.0088C1.24269 9.29714 0.500017 7.56458 0.5 5.85938C0.5 3.03819 2.49126 1.0957 5.04883 1.0957C6.61313 1.09588 7.83491 1.92813 8.56445 3.2207L8.99609 3.98535L9.43359 3.22363C10.1825 1.91796 11.3891 1.0957 12.9521 1.0957Z" fill="white" fill-opacity="0.85" stroke="black"/>
</svg>
