<svg width="16" height="16" viewBox="0 0 16 16" fill="none" xmlns="http://www.w3.org/2000/svg">
<path d="M11.5342 0.5C13.724 0.500242 15.5 2.37938 15.5 5.2334C15.4999 8.69467 12.7019 12.2213 8.22266 15.3838C8.16824 15.4195 8.10839 15.4535 8.05469 15.4766C8.03154 15.4865 8.0131 15.4922 8 15.4961C7.98707 15.4923 7.96893 15.4863 7.94629 15.4766C7.89373 15.4539 7.83528 15.4218 7.78418 15.3877C3.29925 12.2244 0.500112 8.69576 0.5 5.2334C0.5 2.37934 2.27602 0.500198 4.46582 0.5C5.77668 0.5 6.92112 1.30882 7.54883 2.62012L7.99707 3.55664L8.4502 2.62207C9.08991 1.3017 10.2244 0.5 11.5342 0.5Z" fill="#FBFBFA" stroke="black"/>
</svg>
