<svg width="14" height="14" viewBox="0 0 14 14" fill="none" xmlns="http://www.w3.org/2000/svg">
<path d="M7 14C6.03464 14 5.12876 13.817 4.28235 13.451C3.43595 13.0895 2.69248 12.5886 2.05196 11.948C1.41144 11.3075 0.90817 10.5641 0.542157 9.71765C0.180719 8.87124 0 7.96536 0 7C0 6.03464 0.180719 5.12876 0.542157 4.28235C0.90817 3.43595 1.41144 2.69248 2.05196 2.05196C2.69248 1.40686 3.43595 0.903595 4.28235 0.542157C5.12876 0.180719 6.03464 0 7 0C7.96536 0 8.87124 0.180719 9.71765 0.542157C10.5641 0.903595 11.3075 1.40686 11.948 2.05196C12.5886 2.69248 13.0895 3.43595 13.451 4.28235C13.817 5.12876 14 6.03464 14 7C14 7.96536 13.817 8.87124 13.451 9.71765C13.0895 10.5641 12.5886 11.3075 11.948 11.948C11.3075 12.5886 10.5641 13.0895 9.71765 13.451C8.87124 13.817 7.96536 14 7 14ZM7 12.8333C7.80523 12.8333 8.56013 12.6824 9.26471 12.3804C9.96928 12.0784 10.5892 11.6598 11.1245 11.1245C11.6598 10.5892 12.0784 9.96928 12.3804 9.26471C12.6824 8.56013 12.8333 7.80523 12.8333 7C12.8333 6.19477 12.6824 5.43987 12.3804 4.73529C12.0784 4.02614 11.6598 3.40621 11.1245 2.87549C10.5892 2.3402 9.96928 1.92157 9.26471 1.61961C8.56013 1.31765 7.80523 1.16667 7 1.16667C6.19477 1.16667 5.43987 1.31765 4.73529 1.61961C4.03072 1.92157 3.41078 2.3402 2.87549 2.87549C2.3402 3.40621 1.92157 4.02614 1.61961 4.73529C1.31765 5.43987 1.16667 6.19477 1.16667 7C1.16667 7.80523 1.31765 8.56013 1.61961 9.26471C1.92157 9.96928 2.3402 10.5892 2.87549 11.1245C3.41078 11.6598 4.03072 12.0784 4.73529 12.3804C5.43987 12.6824 6.19477 12.8333 7 12.8333ZM5.79902 10.8363C5.65719 10.8363 5.53824 10.7905 5.44216 10.699C5.34608 10.6075 5.29804 10.4931 5.29804 10.3559C5.29804 10.2186 5.34608 10.1042 5.44216 10.0127C5.53824 9.92124 5.65719 9.87549 5.79902 9.87549H6.65V6.72549H5.91569C5.77386 6.72549 5.6549 6.67974 5.55882 6.58824C5.46275 6.49673 5.41471 6.38235 5.41471 6.2451C5.41471 6.10784 5.46275 5.99346 5.55882 5.90196C5.6549 5.81046 5.77386 5.76471 5.91569 5.76471H7.20588C7.37974 5.76471 7.51242 5.8219 7.60392 5.93627C7.69542 6.04608 7.74118 6.19477 7.74118 6.38235V9.87549H8.59216C8.73399 9.87549 8.85294 9.92124 8.94902 10.0127C9.0451 10.1042 9.09314 10.2186 9.09314 10.3559C9.09314 10.4931 9.0451 10.6075 8.94902 10.699C8.85294 10.7905 8.73399 10.8363 8.59216 10.8363H5.79902ZM6.93824 4.61863C6.69118 4.61863 6.48072 4.5317 6.30686 4.35784C6.13301 4.18399 6.04608 3.97353 6.04608 3.72647C6.04608 3.47484 6.13301 3.26209 6.30686 3.08824C6.48072 2.91438 6.69118 2.82745 6.93824 2.82745C7.18987 2.82745 7.40033 2.91438 7.56961 3.08824C7.74346 3.26209 7.83039 3.47484 7.83039 3.72647C7.83039 3.97353 7.74346 4.18399 7.56961 4.35784C7.40033 4.5317 7.18987 4.61863 6.93824 4.61863Z" fill="#FBFBFA"/>
</svg>

<svg xmlns="http://www.w3.org/2000/svg" width="14" height="14" fill="none"><path fill="#FBFBFA" d="M5.25 2.625A1.313 1.313 0 1 0 5.25 0a1.313 1.313 0 0 0 0 2.625ZM3.295 6.759a.655.655 0 1 0-.462-1.227 4.376 4.376 0 1 0 5.404 6.152.656.656 0 1 0-1.16-.618 3.061 3.061 0 1 1-3.782-4.307Zm3.81-1.947-.053-.265a1.304 1.304 0 0 0-2.56.511l.633 3.159c.164.817.88 1.405 1.717 1.405H9.59c.183 0 .345.112.41.285l.993 2.65c.164.44.65.672 1.097.521l1.312-.437a.874.874 0 1 0-.555-1.66l-.511.17-.698-1.86A2.19 2.19 0 0 0 9.59 7.872H7.717L7.454 6.56h1.734a.874.874 0 1 0 0-1.75H7.104v.003Z"/></svg>