<svg width="14" height="14" viewBox="0 0 14 14" fill="none" xmlns="http://www.w3.org/2000/svg">
<path d="M0 5.5866C0 8.66377 2.53292 11.1732 5.63896 11.1732C6.91413 11.1732 8.08037 10.7501 9.02294 10.0402L12.8039 13.7977C12.9349 13.9276 13.1146 14 13.3065 14C13.7239 14 14 13.6888 14 13.2981C14 13.1125 13.9286 12.9416 13.7986 12.815L10.0348 9.06694C10.8123 8.11381 11.2779 6.90304 11.2779 5.5866C11.2779 2.5094 8.74497 0 5.63896 0C2.53292 0 0 2.5094 0 5.5866ZM0.947139 5.5866C0.947139 3.02525 3.0536 0.936119 5.63896 0.936119C8.2243 0.936119 10.3308 3.02525 10.3308 5.5866C10.3308 8.14793 8.2243 10.2349 5.63896 10.2349C3.0536 10.2349 0.947139 8.14793 0.947139 5.5866Z" fill="#FBFBFA"/>
</svg>
