<svg width="25" height="24" viewBox="0 0 25 24" fill="none" xmlns="http://www.w3.org/2000/svg">
<path d="M20.3562 4.73506L20.5654 5.59221C20.7511 6.35732 20.4276 6.97795 19.6717 7.18912L10.9693 9.6342H20.2504C21.0297 9.63673 21.5 10.1302 21.5 10.9367V18.7257C21.5 20.2175 20.7645 21 19.3087 21H6.37351C4.92068 21 4.17686 20.2307 4.17686 18.7257V11.6112L3.61338 9.44236C3.24415 7.99743 3.78005 7.03754 5.17258 6.64391L17.6654 3.12202C19.0609 2.73401 20.0067 3.27131 20.3562 4.73506ZM9.10472 10.6155L7.18997 10.8397L5.96806 13.1727H8.51956L9.8633 10.6155H9.10472ZM12.2331 10.6155L10.8948 13.1727H13.64L14.9813 10.6155H12.2331ZM17.3535 10.6155L16.0152 13.1727H18.5661L19.9051 10.6155H17.3535ZM6.33201 7.33816L5.65292 10.1647L8.1243 9.46861L8.78491 6.63951L6.33201 7.33816ZM11.0848 5.99792L10.4194 8.8245L13.0714 8.08817L13.7344 5.25092L11.0848 5.99792ZM17.8557 4.08386L16.0265 4.60934L15.3581 7.43844L17.829 6.74541L18.4722 3.96295C18.2784 3.99108 18.0722 4.02174 17.8557 4.08386Z" fill="#FBFBFA"/>
</svg>
