<svg width="18" height="18" viewBox="0 0 18 18" fill="none" xmlns="http://www.w3.org/2000/svg">
<path d="M4.9173 9c0 .1615.0538.2961.1615.4038.1137.1017.2572.1525.4307.1525H8.4168v2.9253c0 .1675.0538.308.1615.4217.1077.1077.2423.1615.4038.1615.1735 0 .3141-.0538.4217-.1615.1077-.1077.1615-.2483.1615-.4217V9.5563h2.9252c.1675 0 .3051-.0509.4128-.1525.1077-.1077.1615-.2423.1615-.4038 0-.1735-.0538-.3141-.1615-.4217-.1077-.1077-.2453-.1615-.4128-.1615H9.5653V5.5005c0-.1795-.0538-.323-.1615-.4307-.1077-.1077-.2483-.1615-.4217-.1615-.1615 0-.2961.0568-.4038.1705-.1077.1077-.1615.2483-.1615.4217V8.4168H5.5095c-.1795 0-.323.0538-.4307.1615-.1077.1077-.1615.2483-.1615.4217ZM9 16.8425c-1.0827 0-2.0997-.2034-3.0508-.6102-.9452-.4068-1.7767-.9691-2.4945-1.6869-.7178-.7179-1.2802-1.5494-1.6869-2.4946-.4068-.9511-.6102-1.968-.6102-3.0508 0-1.0827.2034-2.0997.6102-3.0508.4068-.9511.9691-1.7827 1.6869-2.4945.7178-.7178 1.5494-1.2802 2.4945-1.6869C6.9003 1.3609 7.9173 1.1575 9 1.1575c1.0828 0 2.0967.2034 3.0419.6102.9511.4068 1.7856.9691 2.5035 1.6869.7178.7119 1.2801 1.5434 1.6869 2.4945.4068.9511.6102 1.9681.6102 3.0508 0 1.0828-.2034 2.0997-.6102 3.0508-.4068.9452-.9691 1.7767-1.6869 2.4946-.7179.7178-1.5524 1.2801-2.5035 1.6869-.9452.4068-1.9591.6102-3.0419.6102ZM9 18c1.2383 0 2.4018-.2333 3.4905-.6999 1.0888-.4666 2.0429-1.1127 2.8624-1.9382.8256-.8255 1.4716-1.7796 1.9382-2.8624C17.7637 11.4108 18 10.2443 18 9c0-1.2443-.2363-2.4078-.7089-3.4905-.4666-1.0887-1.1126-2.0459-1.9382-2.8714-.8195-.8315-1.7736-1.4776-2.8624-1.9382C11.4018.2333 10.2383 0 9 0 7.7557 0 6.5892.2333 5.5005.6999c-1.0887.4606-2.0459 1.1067-2.8714 1.9382C1.8096 3.4636 1.1665 4.4207.6999 5.5095.2333 6.5922 0 7.7557 0 9s.2333 2.4108.6999 3.4995c.4666 1.0828 1.1097 2.0369 1.9292 2.8624.8255.8255 1.7827 1.4716 2.8714 1.9382C6.5892 17.7667 7.7557 18 9 18Z" fill="#FF9830"/>
</svg>
