<svg width="16" height="24" viewBox="0 0 16 24" fill="none" xmlns="http://www.w3.org/2000/svg">
<path d="M3.97823 23.0457C3.33405 23.0457 2.84076 22.859 2.49836 22.4856C2.16176 22.1122 1.93253 21.5943 1.81066 20.9318L0.0957498 11.5005C-0.014515 10.9284 0.0174038 10.4496 0.191506 10.0642C0.371412 9.67874 0.629664 9.38966 0.966261 9.19693C1.30286 8.99819 1.65687 8.89882 2.02829 8.89882C2.50417 8.89882 2.94232 9.05541 3.34276 9.36858C3.749 9.68175 3.97823 10.1605 4.03046 10.8049L5.10989 23.0457H3.97823ZM6.3025 23.0457L5.24918 10.9314C5.20275 10.3954 5.2898 9.96179 5.51033 9.63056C5.73666 9.29329 6.02393 9.04637 6.37214 8.88979C6.72034 8.7332 7.05694 8.65491 7.38193 8.65491C7.70692 8.65491 8.04352 8.7332 8.39172 8.88979C8.73993 9.04637 9.02429 9.29329 9.24482 9.63056C9.46535 9.96179 9.5524 10.3954 9.50598 10.9314L8.90532 17.9507C8.36561 18.2638 7.94196 18.6944 7.63438 19.2425C7.3268 19.7845 7.17301 20.3807 7.17301 21.0312C7.17301 21.3986 7.22524 21.7509 7.3297 22.0881C7.43416 22.4254 7.58795 22.7325 7.79107 23.0096V23.0457H6.3025ZM12.2655 15.5838C11.8767 15.5838 11.5053 15.6531 11.1512 15.7916C10.803 15.9241 10.5013 16.1108 10.2459 16.3517L10.7247 10.8049C10.7827 10.1605 11.012 9.68175 11.4124 9.36858C11.8186 9.05541 12.2568 8.89882 12.7269 8.89882C13.1041 8.89882 13.461 8.99819 13.7976 9.19693C14.1342 9.38966 14.3895 9.67874 14.5637 10.0642C14.7436 10.4496 14.7813 10.9284 14.6768 11.5005L13.8498 15.9994C13.3681 15.7223 12.84 15.5838 12.2655 15.5838Z" fill="#000A14"/>
<path d="M12.2655 23.5C11.8419 23.5 11.4472 23.3886 11.0816 23.1657C10.716 22.9429 10.4403 22.6448 10.2546 22.2714C9.66268 22.151 9.20421 21.8769 8.87922 21.4493C8.56003 21.0278 8.40044 20.555 8.40044 20.031C8.40044 19.5191 8.55713 19.0463 8.87051 18.6127C9.1897 18.1851 9.63366 17.9201 10.2024 17.8178C10.2546 17.2456 10.4723 16.7789 10.8553 16.4175C11.2383 16.0501 11.7084 15.8665 12.2655 15.8665C12.84 15.8665 13.3188 16.0562 13.7018 16.4356C14.0907 16.809 14.2996 17.2878 14.3286 17.872C14.8683 17.9924 15.2804 18.2604 15.5647 18.676C15.8549 19.0975 16 19.5522 16 20.0401C16 20.5339 15.852 20.9916 15.556 21.4132C15.2659 21.8408 14.8364 22.1208 14.2677 22.2533C14.0878 22.6267 13.815 22.9279 13.4494 23.1567C13.0896 23.3856 12.695 23.5 12.2655 23.5Z" fill="#000A14"/>
<path d="M0.339499 7.11273C0.223431 6.90194 0.13638 6.69115 0.078346 6.48036C0.0261154 6.26957 0 6.05276 0 5.82993C0 5.35415 0.113166 4.92354 0.339499 4.5381C0.565832 4.14664 0.864708 3.83648 1.23613 3.60762C1.60754 3.37876 2.02249 3.26735 2.48096 3.27337C2.48676 3.07463 2.5448 2.88191 2.65506 2.69521C2.76532 2.50851 2.91041 2.36096 3.09032 2.25255C3.27602 2.13813 3.47334 2.08693 3.68226 2.09898C3.76931 1.68945 4.01596 1.32207 4.4222 0.996858C4.82844 0.665619 5.33914 0.5 5.9543 0.5C6.42437 0.5 6.85383 0.629484 7.24266 0.888452C7.63729 1.14742 7.93616 1.49673 8.13928 1.93637C8.24955 1.91228 8.36852 1.90325 8.49619 1.90927C8.62967 1.91529 8.74574 1.93336 8.8444 1.96347C9.05912 1.76473 9.30287 1.61417 9.57563 1.51178C9.85419 1.40338 10.1415 1.34918 10.4374 1.34918C10.9133 1.34918 11.3225 1.48468 11.6649 1.7557C12.0131 2.02069 12.2829 2.37601 12.4744 2.82168C12.9445 2.83975 13.3565 2.96923 13.7106 3.21013C14.0704 3.45103 14.3518 3.77625 14.555 4.18578C14.7581 4.58929 14.8596 5.05604 14.8596 5.58602C14.8596 5.86908 14.8219 6.14009 14.7465 6.39906C14.671 6.652 14.5608 6.88989 14.4157 7.11273C13.8992 6.79353 13.3275 6.63394 12.7008 6.63394C12.2249 6.63394 11.7635 6.7303 11.3166 6.92302C10.8756 7.11574 10.5013 7.41084 10.1937 7.80833C9.88031 7.33857 9.46826 6.98324 8.95756 6.74234C8.45267 6.50144 7.92746 6.38099 7.38194 6.38099C6.83642 6.38099 6.30831 6.50144 5.79761 6.74234C5.29271 6.98324 4.88067 7.33857 4.56148 7.80833C4.2539 7.41084 3.87958 7.11574 3.43852 6.92302C3.00326 6.7303 2.5506 6.63394 2.08052 6.63394C1.45375 6.63394 0.873413 6.79353 0.339499 7.11273Z" fill="#000A14"/>
</svg>
