<svg width="20" height="20" viewBox="0 0 20 20" fill="none" xmlns="http://www.w3.org/2000/svg">
<path d="M13.2563 20C14.6889 20 15.8614 18.8769 15.8614 17.5046C15.8614 16.1323 14.6889 15.0015 13.2563 15.0015C11.8236 15.0015 10.6511 16.1323 10.6511 17.5046C10.6511 18.8769 11.8236 20 13.2563 20ZM13.2563 18.8687C12.4555 18.8687 11.8322 18.2605 11.8322 17.4935C11.8322 16.723 12.4555 16.1294 13.2563 16.1294C14.057 16.1294 14.6768 16.723 14.6768 17.4935C14.6768 18.2605 14.057 18.8687 13.2563 18.8687ZM-1.09563e-07 17.4935C-9.28429e-08 17.876 0.320181 18.1827 0.71951 18.1827L11.3922 18.1827L11.3922 16.8085L0.71951 16.8085C0.320181 16.8085 -1.26283e-07 17.111 -1.09563e-07 17.4935ZM20 17.4935C20 17.111 19.6798 16.8085 19.3089 16.8085L15.2187 16.8085L15.2187 18.1827L19.3089 18.1827C19.6798 18.1827 20 17.876 20 17.4935ZM6.32481 12.5082C7.75746 12.5082 8.92995 11.3775 8.92995 10.0052C8.92995 8.63284 7.75746 7.50972 6.32481 7.50972C4.89218 7.50972 3.71968 8.63284 3.71968 10.0052C3.71968 11.3775 4.89218 12.5082 6.32481 12.5082ZM6.32481 11.3692C5.53207 11.3692 4.90434 10.7611 4.90434 10.0017C4.90434 9.23471 5.53206 8.63762 6.32481 8.63762C7.12556 8.63762 7.74889 9.23471 7.74889 10.0017C7.74889 10.7611 7.12556 11.3692 6.32481 11.3692ZM-4.37039e-07 10.0017C-4.20319e-07 10.3842 0.320181 10.6833 0.691118 10.6833L4.38553 10.6833L4.38553 9.31251L0.691118 9.31251C0.320181 9.31251 -4.53759e-07 9.61921 -4.37039e-07 10.0017ZM20 10.0017C20 9.61921 19.6798 9.31251 19.2804 9.31251L8.1817 9.31251L8.1817 10.6833L19.2804 10.6833C19.6798 10.6833 20 10.3842 20 10.0017ZM13.2563 4.99079C14.6889 4.99079 15.8614 3.86426 15.8614 2.49539C15.8614 1.12312 14.6889 -6.42072e-07 13.2563 -5.7945e-07C11.8236 -5.16827e-07 10.6511 1.12312 10.6511 2.4954C10.6511 3.86426 11.8236 4.99079 13.2563 4.99079ZM13.2563 3.85608C12.4555 3.85608 11.8322 3.24786 11.8322 2.48846C11.8322 1.71384 12.4555 1.12789 13.2563 1.12789C14.057 1.12789 14.6768 1.71384 14.6768 2.48846C14.6768 3.24786 14.057 3.85608 13.2563 3.85608ZM-7.64847e-07 2.50233C-7.48129e-07 2.88481 0.320181 3.19489 0.719509 3.19489L11.3927 3.19489L11.3927 1.82068L0.719509 1.82068C0.320181 1.82068 -7.81571e-07 2.11973 -7.64847e-07 2.50233ZM20 2.50233C20 2.11973 19.6798 1.82068 19.3089 1.82068L15.1427 1.82068L15.1427 3.19489L19.3089 3.19489C19.6798 3.19489 20 2.88481 20 2.50233Z" fill="#FBFBFA"/>
</svg>
