<svg width="300" height="508" viewBox="0 0 300 508" fill="none" xmlns="http://www.w3.org/2000/svg">
<path d="M0.94992 3.0787C0.0955547 4.26794 0.0116236 6.66147 0.0124475 8.01968L-5.99525e-06 335.053C0.00416655 336.718 0.683715 338.341 1.94423 339.696C3.20475 341.052 4.98364 342.072 7.03374 342.615C11.2206 343.733 14.8501 345.825 17.4186 348.6C19.9871 351.374 21.3671 354.694 21.3671 358.098C21.3671 361.502 19.9871 364.822 17.4186 367.597C14.8501 370.371 11.2206 372.463 7.03374 373.581C4.98365 374.125 3.20475 375.145 1.94423 376.5C0.683716 377.855 0.00416803 379.478 -4.39751e-06 381.143L0.0124646 499.979C0.0115405 501.032 0.280814 502.075 0.804963 503.048C1.32911 504.021 2.09783 504.905 3.06719 505.65C4.03655 506.395 5.18755 506.986 6.45441 507.389C7.72127 507.792 9.07917 508 10.4505 508L289.416 508C290.787 508 292.145 507.792 293.412 507.389C294.679 506.986 295.83 506.395 296.799 505.65C297.769 504.905 298.537 504.021 299.061 503.048C299.585 502.075 299.855 501.032 299.854 499.979L299.858 381.143C299.854 379.478 299.174 377.855 297.914 376.5C296.653 375.145 294.875 374.125 292.824 373.581C288.638 372.463 285.008 370.371 282.44 367.597C279.871 364.822 279.256 361.475 279.256 358.071C279.256 354.667 279.871 351.374 282.44 348.6C285.008 345.825 288.638 343.733 292.824 342.615C294.875 342.072 296.653 341.052 297.914 339.696C299.174 338.341 299.854 336.718 299.858 335.053L299.854 8.04658C299.855 6.99373 299.585 5.95116 299.061 4.97832C298.537 4.00548 297.768 3.12157 296.799 2.37709C295.829 1.63261 294.678 1.04222 293.411 0.639632C292.145 0.237044 290.787 0.0301964 289.416 0.0309289L10.4505 0.0309442C8.5894 0.0280452 5.36867 -0.182923 3.7623 0.538788C2.15594 1.26053 1.85853 1.83139 0.94992 3.0787Z" fill="#FBFBFA"/>
</svg>
