<svg xmlns="http://www.w3.org/2000/svg" width="16" height="19" fill="none"><path fill="#fff" d="M5.554 16.253c.314 0 .52-.205.512-.504L5.81 6.621c-.008-.299-.215-.495-.512-.495-.315 0-.521.204-.513.503l.248 9.12c.008.308.215.504.52.504Zm2.446 0c.314 0 .537-.205.537-.504V6.63c0-.298-.223-.503-.537-.503-.314 0-.529.204-.529.503v9.12c0 .299.215.504.529.504Zm2.455 0c.297 0 .504-.196.512-.504l.248-9.12c.008-.298-.198-.503-.512-.503-.298 0-.505.196-.513.503l-.248 9.12c-.008.299.198.504.513.504ZM4.372 3.899h1.314V2.073c0-.486.33-.802.826-.802h2.96c.495 0 .826.316.826.802V3.9h1.314V1.988C11.612.75 10.835 0 9.562 0h-3.14c-1.273 0-2.05.75-2.05 1.988v1.911ZM.62 4.582h14.769c.338 0 .611-.3.611-.649 0-.35-.273-.64-.611-.64H.619a.64.64 0 0 0-.619.64c0 .358.29.649.62.649ZM4.215 19h7.578c1.182 0 1.976-.793 2.034-2.013l.578-12.568h-1.33l-.554 12.422c-.017.512-.372.87-.86.87h-7.33c-.471 0-.827-.366-.852-.87L2.893 4.42H1.595l.587 12.576C2.24 18.215 3.017 19 4.215 19Z"/></svg>
