<svg width="11" height="18" viewBox="0 0 11 18" fill="none" xmlns="http://www.w3.org/2000/svg">
<path d="M0 9.00001C0 9.24483 0.101227 9.46027 0.314929 9.64632L9.23415 17.2357C9.42535 17.4119 9.67281 17.5 9.96523 17.5C10.5501 17.5 11 17.1181 11 16.6089C11 16.3542 10.8763 16.1388 10.6963 15.9724L2.50818 9.00001L10.6963 2.02765C10.8763 1.86118 11 1.63594 11 1.39113C11 0.881913 10.5501 0.5 9.96523 0.5C9.67281 0.5 9.42535 0.588134 9.23415 0.754608L0.314929 8.3537C0.101227 8.52996 0 8.75519 0 9.00001Z" fill="#000000"/>
</svg>
