<svg width="14" height="14" viewBox="0 0 14 14" fill="none" xmlns="http://www.w3.org/2000/svg">
<path d="M5.25039 2.625C5.59851 2.625 5.93237 2.48672 6.17853 2.24058C6.42469 1.99444 6.56298 1.6606 6.56298 1.3125C6.56298 0.964403 6.42469 0.630564 6.17853 0.384422C5.93237 0.138281 5.59851 0 5.25039 0C4.90226 0 4.5684 0.138281 4.32224 0.384422C4.07608 0.630564 3.93779 0.964403 3.93779 1.3125C3.93779 1.6606 4.07608 1.99444 4.32224 2.24058C4.5684 2.48672 4.90226 2.625 5.25039 2.625ZM3.29516 6.75937C3.63425 6.63086 3.80653 6.25352 3.678 5.91445C3.54948 5.57539 3.17211 5.40313 2.83302 5.53164C1.1786 6.15508 0 7.75195 0 9.625C0 12.0422 1.95796 14 4.37532 14C6.04888 14 7.50094 13.0621 8.23654 11.684C8.40609 11.3641 8.28576 10.9676 7.96582 10.7953C7.64587 10.623 7.24936 10.7461 7.07708 11.066C6.56298 12.0313 5.54572 12.6875 4.37532 12.6875C2.68262 12.6875 1.3126 11.3176 1.3126 9.625C1.3126 8.31523 2.1357 7.19687 3.29516 6.75937ZM7.10443 4.8125L7.05247 4.54727C6.92941 3.9375 6.39617 3.5 5.77269 3.5C4.94958 3.5 4.33157 4.25195 4.49291 5.05859L5.12459 8.2168C5.28867 9.03437 6.00513 9.62227 6.84191 9.62227H6.98137C6.99231 9.62227 7.00325 9.62227 7.01692 9.62227H9.59016C9.77337 9.62227 9.93471 9.73437 10.0003 9.90664L10.993 12.5563C11.1571 12.9965 11.6438 13.2289 12.0896 13.0785L13.4022 12.641C13.8616 12.4879 14.1077 11.993 13.9545 11.5336C13.8014 11.0742 13.3064 10.8281 12.847 10.9813L12.3357 11.1508L11.6384 9.29141C11.3184 8.43828 10.5008 7.87227 9.59016 7.87227H7.71697L7.45445 6.55977H9.18817C9.67219 6.55977 10.0632 6.16875 10.0632 5.68477C10.0632 5.20078 9.67219 4.80977 9.18817 4.80977H7.10443V4.8125Z" fill="#FBFBFA"/>
</svg>
